<?xml version="1.0" encoding="UTF-8"?>
<svg version="1.1" xmlns="http://www.w3.org/2000/svg" width="192" height="192">
<path d="M0 0 C0.20625 0.886875 0.4125 1.77375 0.625 2.6875 C2.41276531 6.99438916 4.15461968 8.41025407 8 11 C8.99 10.67 9.98 10.34 11 10 C12.33783393 10.31478446 13.67203709 10.64587656 15 11 C15.33 10.67 15.66 10.34 16 10 C23.37881783 10.05537574 34.9067011 10.2595717 40.5859375 15.44921875 C41.95073738 17.56053668 42.95044866 19.71311816 44 22 C44.68040022 23.26756675 45.37003387 24.53019974 46.06640625 25.7890625 C52 36.56471706 52 36.56471706 52 39 C52.804375 39.28875 53.60875 39.5775 54.4375 39.875 C57 41 57 41 58 43 C59.485 43.495 59.485 43.495 61 44 C61.226875 44.66 61.45375 45.32 61.6875 46 C62.96120689 48.4502279 62.96120689 48.4502279 66.75 48.8125 C70.30371738 49.09783497 73.50957354 48.78534595 77 48 C76.20992386 58.2709898 73.96287142 67.23163374 66 74.18359375 C63.86747339 75.97242746 63.86747339 75.97242746 62.28204346 78.57804871 C60 81 60 81 57.0133667 81.60127258 C55.267966 81.584618 55.267966 81.584618 53.48730469 81.56762695 C52.84298492 81.56835709 52.19866516 81.56908722 51.53482056 81.56983948 C49.41297101 81.56636616 47.29333909 81.52752539 45.171875 81.48828125 C43.69786783 81.47895201 42.22384513 81.47183642 40.74981689 81.46684265 C36.87618971 81.44778097 33.00350474 81.39868918 29.13024902 81.34332275 C25.17550401 81.29211125 21.22060625 81.26932467 17.265625 81.24414062 C9.50993803 81.19056769 1.75522124 81.10264078 -6 81 C-6.33 76.38 -6.66 71.76 -7 67 C-8.65 66.67 -10.3 66.34 -12 66 C-12.99 65.505 -12.99 65.505 -14 65 C-15.52148326 64.91627341 -17.04655778 64.89269973 -18.5703125 64.90234375 C-19.91416016 64.90717773 -19.91416016 64.90717773 -21.28515625 64.91210938 C-22.22230469 64.92048828 -23.15945312 64.92886719 -24.125 64.9375 C-25.54232422 64.94426758 -25.54232422 64.94426758 -26.98828125 64.95117188 C-29.32558387 64.96297643 -31.66276061 64.97944241 -34 65 C-32.8827557 62.67730789 -31.78740165 60.71147367 -30.25 58.625 C-28.64016967 55.95739089 -28.64016967 55.95739089 -29.8125 52.6875 C-30.204375 51.800625 -30.59625 50.91375 -31 50 C-34.37870659 49.71474335 -37.63138253 49.55447317 -41 50 C-43.3400392 52.62368031 -43.89623452 54.68870356 -45 58 C-45.66 57.01 -46.32 56.02 -47 55 C-47.99 54.67 -48.98 54.34 -50 54 C-51.9296875 52.03125 -51.9296875 52.03125 -53.875 49.5 C-54.53242187 48.6853125 -55.18984375 47.870625 -55.8671875 47.03125 C-57.59429341 42.4097528 -55.8656053 39.38749428 -54 35 C-53.69868164 34.23703613 -53.39736328 33.47407227 -53.08691406 32.68798828 C-52.16088051 30.37684079 -51.1818387 28.09500352 -50.1875 25.8125 C-49.86974609 25.04486328 -49.55199219 24.27722656 -49.22460938 23.48632812 C-46.90540783 18.16902321 -44.21229744 14.96555198 -40 11 C-39.67 10.01 -39.34 9.02 -39 8 C-37 7.5 -37 7.5 -35 7 C-34.67 6.01 -34.34 5.02 -34 4 C-32.3125 3.4375 -32.3125 3.4375 -30 3 C-29.08992188 2.67386719 -28.17984375 2.34773438 -27.2421875 2.01171875 C-18.62710229 -0.67660302 -8.95342545 -0.16148463 0 0 Z M-14 24 C-13 27 -13 27 -13 27 Z M-12 24 C-12 24.33 -12 24.66 -12 25 C-2.43 25 7.14 25 17 25 C17 24.67 17 24.34 17 24 C7.43 24 -2.14 24 -12 24 Z M19 25 C19 25.99 19 26.98 19 28 C19.66 27.34 20.32 26.68 21 26 C20.34 25.67 19.68 25.34 19 25 Z M-12 26 C-12 26.33 -12 26.66 -12 27 C-2.43 27 7.14 27 17 27 C17 26.67 17 26.34 17 26 C7.43 26 -2.14 26 -12 26 Z M22 28 C22 28.99 22 29.98 22 31 C22.66 30.34 23.32 29.68 24 29 C23.34 28.67 22.68 28.34 22 28 Z M25 31 C25 31.99 25 32.98 25 34 C25.66 33.34 26.32 32.68 27 32 C26.34 31.67 25.68 31.34 25 31 Z M28 34 C27.67 35.32 27.34 36.64 27 38 C22.38 38.33 17.76 38.66 13 39 C13 39.33 13 39.66 13 40 C19.27 40 25.54 40 32 40 C32 39.01 32 38.02 32 37 C30.05990478 35.29467677 30.05990478 35.29467677 28 34 Z M10 40 C8.94983987 41.14034008 7.93409804 42.31256404 6.9375 43.5 C6.11572266 44.47453125 6.11572266 44.47453125 5.27734375 45.46875 C4.85582031 45.9740625 4.43429688 46.479375 4 47 C5.485 47.99 5.485 47.99 7 49 C7.845625 48.071875 8.69125 47.14375 9.5625 46.1875 C10.03816406 45.66542969 10.51382813 45.14335938 11.00390625 44.60546875 C11.33261719 44.07566406 11.66132812 43.54585937 12 43 C11.67 42.01 11.34 41.02 11 40 C10.67 40 10.34 40 10 40 Z M13 41 C13 41.33 13 41.66 13 42 C26.86 42 40.72 42 55 42 C55 41.67 55 41.34 55 41 C41.14 41 27.28 41 13 41 Z M-41 47 C-41 47.33 -41 47.66 -41 48 C-38.69 48 -36.38 48 -34 48 C-34 47.67 -34 47.34 -34 47 C-36.31 47 -38.62 47 -41 47 Z M-45 49 C-44 51 -44 51 -44 51 Z M1 49 C-0.32 50.65 -1.64 52.3 -3 54 C-1.96593327 55.25949049 -1.96593327 55.25949049 0.28515625 55.09765625 C1.20167969 55.08605469 2.11820313 55.07445312 3.0625 55.0625 C3.98160156 55.05347656 4.90070313 55.04445313 5.84765625 55.03515625 C6.55792969 55.02355469 7.26820312 55.01195312 8 55 C8 54.67 8 54.34 8 54 C6.02 54 4.04 54 2 54 C2.33 52.68 2.66 51.36 3 50 C2.34 49.67 1.68 49.34 1 49 Z M-46 51 C-45 53 -45 53 -45 53 Z M48 64 C49 66 49 66 49 66 Z M56 64 C57.485 64.99 57.485 64.99 59 66 C59 65.34 59 64.68 59 64 C58.01 64 57.02 64 56 64 Z M61 64 C59.84162374 68.05431692 60.16308743 70.21812119 62 74 C62.33 74 62.66 74 63 74 C63 71.03 63 68.06 63 65 C62.34 64.67 61.68 64.34 61 64 Z M20 67 C21 69 21 69 21 69 Z M49 67 C50 69 50 69 50 69 Z M47 66 C47 66.66 47 67.32 47 68 C39.08 68.33 31.16 68.66 23 69 C22.67 69.66 22.34 70.32 22 71 C24.99001344 71.8730497 27.58654529 72.09679427 30.6953125 72.02734375 C31.57574219 72.01509766 32.45617187 72.00285156 33.36328125 71.99023438 C35.21231511 71.9549275 37.06128033 71.91583292 38.91015625 71.87304688 C39.78800781 71.86208984 40.66585937 71.85113281 41.5703125 71.83984375 C42.37227051 71.82300537 43.17422852 71.80616699 44.00048828 71.78881836 C46 72 46 72 48 74 C48.6878236 71.64632287 48.6878236 71.64632287 49 69 C48.34 68.01 47.68 67.02 47 66 Z M49 71 C50 73 50 73 50 73 Z M60 71 C61 73 61 73 61 73 Z M50 73 C51 75 51 75 51 75 Z M48 74 C49 76 49 76 49 76 Z M52 75 C52 75.33 52 75.66 52 76 C53.98 76 55.96 76 58 76 C58 75.67 58 75.34 58 75 C56.02 75 54.04 75 52 75 Z M53 77 C53 77.33 53 77.66 53 78 C54.98 78 56.96 78 59 78 C59 77.67 59 77.34 59 77 C57.02 77 55.04 77 53 77 Z " fill="#0EA783" transform="translate(78,18)"/>
<path d="M0 0 C1.22033936 0.00785522 1.22033936 0.00785522 2.46533203 0.01586914 C3.79371094 0.02070312 3.79371094 0.02070312 5.14892578 0.02563477 C6.08091797 0.03401367 7.01291016 0.04239258 7.97314453 0.05102539 C8.89740234 0.05553711 9.82166016 0.06004883 10.77392578 0.06469727 C12.49513004 0.07344068 14.21632591 0.08422817 15.9375 0.09765625 C17.65767658 0.11029032 19.37792155 0.11352539 21.09814453 0.11352539 C21.75814453 0.44352539 22.41814453 0.77352539 23.09814453 1.11352539 C23.42814453 0.78352539 23.75814453 0.45352539 24.09814453 0.11352539 C26.31669717 0.02568997 28.53802949 0.0065793 30.75830078 0.01586914 C31.75500038 0.01799156 31.75500038 0.01799156 32.77183533 0.02015686 C34.90148352 0.02577021 37.03102793 0.03832485 39.16064453 0.05102539 C40.60139823 0.05603868 42.04215356 0.06060188 43.48291016 0.06469727 C47.02135555 0.07574394 50.55973992 0.09301747 54.09814453 0.11352539 C52.8862986 6.47835097 52.8862986 6.47835097 51.09814453 9.11352539 C49.16064453 9.67602539 49.16064453 9.67602539 47.09814453 10.11352539 C45.26698559 11.10867763 45.26698559 11.10867763 44.09814453 13.11352539 C43.69686039 15.13684229 43.47261374 17.12019819 43.30908203 19.17602539 C43.09814453 21.11352539 43.09814453 21.11352539 42.09814453 24.11352539 C41.43814453 24.11352539 40.77814453 24.11352539 40.09814453 24.11352539 C39.60314453 25.59852539 39.60314453 25.59852539 39.09814453 27.11352539 C37.03564453 28.30102539 37.03564453 28.30102539 35.09814453 29.11352539 C34.89189453 28.32977539 34.68564453 27.54602539 34.47314453 26.73852539 C33.29130984 23.85983627 33.29130984 23.85983627 30.22314453 22.67602539 C26.8865133 22.07543177 25.8274892 22.22397908 23.09814453 24.11352539 C23.09814453 26.42352539 23.09814453 28.73352539 23.09814453 31.11352539 C25.43028601 32.31980547 27.59456592 33.27899919 30.09814453 34.11352539 C29.78564453 35.98852539 29.78564453 35.98852539 29.09814453 38.11352539 C25.56754352 40.4672594 22.51218697 40.77130954 18.41064453 41.23852539 C17.70875 41.32489258 17.00685547 41.41125977 16.28369141 41.50024414 C14.55603308 41.71179414 12.82718793 41.91361139 11.09814453 42.11352539 C2.72590309 26.26393767 2.72590309 26.26393767 0.68408203 17.36743164 C0.12850947 14.87478773 0.12850947 14.87478773 -1.58935547 11.92602539 C-3.38602486 8.07601956 -3.1881159 5.33586682 -2.90185547 1.11352539 C-1.90185547 0.11352539 -1.90185547 0.11352539 0 0 Z M26.09814453 4.11352539 C27.09814453 6.11352539 27.09814453 6.11352539 27.09814453 6.11352539 Z M28.09814453 6.11352539 C28.42814453 11.06352539 28.75814453 16.01352539 29.09814453 21.11352539 C29.42814453 21.11352539 29.75814453 21.11352539 30.09814453 21.11352539 C30.09814453 16.49352539 30.09814453 11.87352539 30.09814453 7.11352539 C29.43814453 6.78352539 28.77814453 6.45352539 28.09814453 6.11352539 Z M25.09814453 7.11352539 C25.75814453 7.77352539 26.41814453 8.43352539 27.09814453 9.11352539 C27.09814453 8.45352539 27.09814453 7.79352539 27.09814453 7.11352539 C26.43814453 7.11352539 25.77814453 7.11352539 25.09814453 7.11352539 Z M27.09814453 9.11352539 C27.09814453 13.07352539 27.09814453 17.03352539 27.09814453 21.11352539 C27.42814453 21.11352539 27.75814453 21.11352539 28.09814453 21.11352539 C28.09814453 17.15352539 28.09814453 13.19352539 28.09814453 9.11352539 C27.76814453 9.11352539 27.43814453 9.11352539 27.09814453 9.11352539 Z " fill="#13A986" transform="translate(80.90185546875,121.886474609375)"/>
<path d="M0 0 C1.02259504 1.03301639 2.01928608 2.09232759 2.98828125 3.17578125 C3.51099609 3.69333984 4.03371094 4.21089844 4.57226562 4.74414062 C7.12039201 7.42585162 8.27683919 8.94087299 8.44067383 12.68676758 C8.39450928 13.61126709 8.34834473 14.5357666 8.30078125 15.48828125 C9.46649658 15.48042603 9.46649658 15.48042603 10.65576172 15.47241211 C14.16242674 15.45167969 17.66907888 15.43863304 21.17578125 15.42578125 C23.01076172 15.41321289 23.01076172 15.41321289 24.8828125 15.40039062 C26.63271484 15.39555664 26.63271484 15.39555664 28.41796875 15.390625 C30.03614502 15.38276978 30.03614502 15.38276978 31.68701172 15.37475586 C34.30078125 15.48828125 34.30078125 15.48828125 36.30078125 16.48828125 C36.79578125 15.00328125 36.79578125 15.00328125 37.30078125 13.48828125 C38.29078125 16.45828125 39.28078125 19.42828125 40.30078125 22.48828125 C21.49078125 22.48828125 2.68078125 22.48828125 -16.69921875 22.48828125 C-17.02921875 17.86828125 -17.35921875 13.24828125 -17.69921875 8.48828125 C-19.67921875 8.48828125 -21.65921875 8.48828125 -23.69921875 8.48828125 C-24.35921875 8.15828125 -25.01921875 7.82828125 -25.69921875 7.48828125 C-27.22070201 7.40455466 -28.74577653 7.38098098 -30.26953125 7.390625 C-31.61337891 7.39545898 -31.61337891 7.39545898 -32.984375 7.40039062 C-33.92152344 7.40876953 -34.85867187 7.41714844 -35.82421875 7.42578125 C-37.24154297 7.43254883 -37.24154297 7.43254883 -38.6875 7.43945312 C-41.02480262 7.45125768 -43.36197936 7.46772366 -45.69921875 7.48828125 C-44.57023594 5.18613803 -43.40313909 2.99861105 -42.07421875 0.80078125 C-40.61403952 -1.20657383 -40.61403952 -1.20657383 -40.69921875 -2.51171875 C-36.59555363 -2.71144464 -32.49129243 -2.89421308 -28.38671875 -3.07421875 C-27.23880859 -3.13029297 -26.09089844 -3.18636719 -24.90820312 -3.24414062 C-5.02648966 -4.08897264 -5.02648966 -4.08897264 0 0 Z M36.30078125 16.48828125 C37.30078125 18.48828125 37.30078125 18.48828125 37.30078125 18.48828125 Z " fill="#0EA684" transform="translate(89.69921875,75.51171875)"/>
<path d="M0 0 C21.45 0 42.9 0 65 0 C64.34 0.33 63.68 0.66 63 1 C62.48977117 3.64422295 62.48977117 3.64422295 62.3125 6.75 C62.18294922 8.32007812 62.18294922 8.32007812 62.05078125 9.921875 C62.00321835 12.80491852 62.31300695 15.21070489 63 18 C60.625 18.125 60.625 18.125 58 18 C54.84228577 14.84228577 55.37493227 11.37420978 55 7 C54.67 10.63 54.34 14.26 54 18 C52.68 18.33 51.36 18.66 50 19 C53.96 19 57.92 19 62 19 C61.67 19.66 61.34 20.32 61 21 C51.76 21 42.52 21 33 21 C33.495 19.515 33.495 19.515 34 18 C34 18.66 34 19.32 34 20 C35.98 19.67 37.96 19.34 40 19 C39.34 18.01 38.68 17.02 38 16 C37.4031657 11.79115555 37.33142267 8.14215294 39.5 4.4375 C39.995 3.963125 40.49 3.48875 41 3 C36.90996141 1.85017398 32.96822949 1.88905744 28.75 1.9375 C27.63238281 1.94426758 27.63238281 1.94426758 26.4921875 1.95117188 C24.6614236 1.96290754 22.83070127 1.9808415 21 2 C21.31453125 2.59554687 21.6290625 3.19109375 21.953125 3.8046875 C23.26230726 6.55006223 23.73704955 8.97606978 24 12 C23.34 12.66 22.68 13.32 22 14 C21.83312552 16.58354218 21.83312552 16.58354218 22 19 C21.34 18.67 20.68 18.34 20 18 C18.2675 18.2475 18.2675 18.2475 16.5 18.5 C13 19 13 19 11 18 C10.34 17.01 9.68 16.02 9 15 C7.02 17.97 7.02 17.97 5 21 C3.66666667 20.66666667 2.33333333 20.33333333 1 20 C0.29875 19.835 -0.4025 19.67 -1.125 19.5 C-3 19 -3 19 -5 18 C-5.56364659 7.24896324 -5.56364659 7.24896324 -2 3 C-1.34 2.67 -0.68 2.34 0 2 C0 1.34 0 0.68 0 0 Z M7 1 C7.33 3.31 7.66 5.62 8 8 C10.43929746 6.07423885 12.80090595 4.19909405 15 2 C12.29120665 0.64560332 9.99066732 0.93498549 7 1 Z M44 1 C46.1385485 3.1385485 47.13275314 3.42655063 50 4 C50 3.01 50 2.02 50 1 C48.02 1 46.04 1 44 1 Z M51 1 C51.33 1.66 51.66 2.32 52 3 C52.66 3 53.32 3 54 3 C54 2.34 54 1.68 54 1 C53.01 1 52.02 1 51 1 Z M0 8 C1 10 1 10 1 10 Z M4 8 C4.33 9.65 4.66 11.3 5 13 C5.33 13 5.66 13 6 13 C6 11.35 6 9.7 6 8 C5.34 8 4.68 8 4 8 Z M7 8 C7 9.65 7 11.3 7 13 C7.33 13 7.66 13 8 13 C8 11.35 8 9.7 8 8 C7.67 8 7.34 8 7 8 Z M43 8 C43 9.65 43 11.3 43 13 C43.33 13 43.66 13 44 13 C44 11.35 44 9.7 44 8 C43.67 8 43.34 8 43 8 Z M60 8 C61 12 61 12 61 12 Z M45 9 C45 9.99 45 10.98 45 12 C46.32 12.33 47.64 12.66 49 13 C48.67 11.35 48.34 9.7 48 8 C46.7763932 7.9254644 46.7763932 7.9254644 45 9 Z M0 11 C1 13 1 13 1 13 Z " fill="#1CA080" transform="translate(73,100)"/>
<path d="M0 0 C0.66 0.33 1.32 0.66 2 1 C2.33 0.67 2.66 0.34 3 0 C5.21855264 -0.08783542 7.43988496 -0.10694609 9.66015625 -0.09765625 C10.65685585 -0.09553383 10.65685585 -0.09553383 11.6736908 -0.09336853 C13.80333899 -0.08775518 15.93288339 -0.07520054 18.0625 -0.0625 C19.50325369 -0.05748671 20.94400903 -0.05292351 22.38476562 -0.04882812 C25.92321102 -0.03778145 29.46159539 -0.02050792 33 0 C31.78815407 6.36482558 31.78815407 6.36482558 30 9 C28.0625 9.5625 28.0625 9.5625 26 10 C24.16884106 10.99515224 24.16884106 10.99515224 23 13 C22.59871586 15.02331689 22.37446921 17.0066728 22.2109375 19.0625 C22 21 22 21 21 24 C20.34 24 19.68 24 19 24 C18.67 24.99 18.34 25.98 18 27 C15.9375 28.1875 15.9375 28.1875 14 29 C13.79375 28.21625 13.5875 27.4325 13.375 26.625 C11.9794353 23.22243212 11.9794353 23.22243212 6 22 C6 17.05 6 12.1 6 7 C3.03 6.505 3.03 6.505 0 6 C-0.38218767 4.34385343 -0.71395102 2.67542976 -1 1 C-0.67 0.67 -0.34 0.34 0 0 Z M5 4 C6 6 6 6 6 6 Z M7 6 C7.33 10.95 7.66 15.9 8 21 C8.33 21 8.66 21 9 21 C9 16.38 9 11.76 9 7 C8.34 6.67 7.68 6.34 7 6 Z " fill="#22AF8D" transform="translate(102,122)"/>
<path d="M0 0 C1.9375 0.75 1.9375 0.75 3.9375 2.75 C4.9275 2.42 5.9175 2.09 6.9375 1.75 C7.9375 2.75 7.9375 2.75 8.03515625 6.12890625 C8.02848369 7.52347077 8.01652532 8.91801743 8 10.3125 C7.99548828 11.02341797 7.99097656 11.73433594 7.98632812 12.46679688 C7.97450864 14.22790013 7.95657263 15.98896036 7.9375 17.75 C-0.01236326 19.18755697 -0.01236326 19.18755697 -4.0625 17.5 C-6.0625 15.75 -6.0625 15.75 -7.0625 12.75 C-7.7225 12.75 -8.3825 12.75 -9.0625 12.75 C-9.495625 13.6471875 -9.495625 13.6471875 -9.9375 14.5625 C-11.0625 16.75 -11.0625 16.75 -13.0625 19.75 C-15.0425 19.09 -17.0225 18.43 -19.0625 17.75 C-19.3925 19.4 -19.7225 21.05 -20.0625 22.75 C-21.3825 22.75 -22.7025 22.75 -24.0625 22.75 C-24.0625 16.15 -24.0625 9.55 -24.0625 2.75 C-23.4025 2.42 -22.7425 2.09 -22.0625 1.75 C-21.0725 2.08 -20.0825 2.41 -19.0625 2.75 C-17.06140722 2.42329097 -15.06133869 2.09022786 -13.0625 1.75 C-10.2785817 3.14195915 -10.08351003 4.90575779 -9.0625 7.75 C-8.4025 7.75 -7.7425 7.75 -7.0625 7.75 C-6.794375 6.80125 -6.52625 5.8525 -6.25 4.875 C-4.96916942 1.50439321 -3.91911287 -0.47504398 0 0 Z M-19.0625 7.75 C-19.0625 9.4 -19.0625 11.05 -19.0625 12.75 C-17.7425 12.42 -16.4225 12.09 -15.0625 11.75 C-15.0625 11.09 -15.0625 10.43 -15.0625 9.75 C-16.0525 9.75 -17.0425 9.75 -18.0625 9.75 C-18.3925 9.09 -18.7225 8.43 -19.0625 7.75 Z M-14.0625 8.75 C-13.0625 11.75 -13.0625 11.75 -13.0625 11.75 Z M-0.0625 8.75 C-0.0625 9.74 -0.0625 10.73 -0.0625 11.75 C0.9275 12.08 1.9175 12.41 2.9375 12.75 C2.9375 11.1 2.9375 9.45 2.9375 7.75 C1.7138932 7.6754644 1.7138932 7.6754644 -0.0625 8.75 Z M-3.0625 9.75 C-2.0625 11.75 -2.0625 11.75 -2.0625 11.75 Z M-15.0625 11.75 C-14.0625 13.75 -14.0625 13.75 -14.0625 13.75 Z M-2.0625 11.75 C-1.0625 13.75 -1.0625 13.75 -1.0625 13.75 Z " fill="#68C0AC" transform="translate(59.0625,100.25)"/>
<path d="M0 0 C1.37595398 4.54853577 0.47301577 8.13073885 -0.8125 12.5625 C-0.99103516 13.22185547 -1.16957031 13.88121094 -1.35351562 14.56054688 C-3.17125576 21.08997445 -3.17125576 21.08997445 -5 24 C-6.33076989 24.34342449 -7.66431979 24.67619874 -9 25 C-10.75422772 26.97670607 -10.75422772 26.97670607 -12 29 C-12 28.34 -12 27.68 -12 27 C-12.66 27 -13.32 27 -14 27 C-13.8859425 24.08252927 -13.75919732 21.16655505 -13.625 18.25 C-13.5940625 17.425 -13.563125 16.6 -13.53125 15.75 C-13.47324219 14.55117187 -13.47324219 14.55117187 -13.4140625 13.328125 C-13.3826416 12.5949707 -13.3512207 11.86181641 -13.31884766 11.10644531 C-12.95622572 8.71080823 -12.28227527 7.05141338 -11 5 C-9.67405895 4.63837971 -8.34061543 4.30271961 -7 4 C-6.67 3.01 -6.34 2.02 -6 1 C-3.90006779 0.25486277 -2.22568901 0 0 0 Z " fill="#29AF90" transform="translate(154,119)"/>
<path d="M0 0 C7.875 0 7.875 0 11 2 C10.01 2.33 9.02 2.66 8 3 C8.804375 3.45375 9.60875 3.9075 10.4375 4.375 C13 6 13 6 14 8 C14.07033769 9.87379605 14.0843022 11.75001102 14.0625 13.625 C14.05347656 14.62789062 14.04445312 15.63078125 14.03515625 16.6640625 C14.02355469 17.43492188 14.01195312 18.20578125 14 19 C12.35 19 10.7 19 9 19 C9 16.36 9 13.72 9 11 C8.34 11 7.68 11 7 11 C7.33 11.66 7.66 12.32 8 13 C8.039992 14.99960012 8.04346799 17.00047242 8 19 C5.36 19 2.72 19 0 19 C0 12.73 0 6.46 0 0 Z " fill="#62C1AA" transform="translate(166,99)"/>
<path d="M0 0 C3.5 0.8125 3.5 0.8125 7 2 C7.99 2.33 8.98 2.66 10 3 C10.16873478 4.43725871 10.33490737 5.87481838 10.5 7.3125 C10.5928125 8.11300781 10.685625 8.91351563 10.78125 9.73828125 C11 12 11 12 11 15 C8.73437327 17.26562673 7.15839295 17.94462749 3.95703125 18.09765625 C3.24933594 18.08605469 2.54164063 18.07445313 1.8125 18.0625 C-0.0746875 18.0315625 -0.0746875 18.0315625 -2 18 C-4.33465665 13.18477065 -4.39725314 8.93967325 -3.6875 3.6875 C-3 2 -3 2 0 0 Z " fill="#07A680" transform="translate(140,101)"/>
<path d="M0 0 C2.94573974 1.5710612 4.2600019 2.56750358 5.8125 5.5 C5.8125 6.82 5.8125 8.14 5.8125 9.5 C5.1525 10.16 4.4925 10.82 3.8125 11.5 C3.64562552 14.08354218 3.64562552 14.08354218 3.8125 16.5 C3.1525 16.17 2.4925 15.84 1.8125 15.5 C0.08 15.7475 0.08 15.7475 -1.6875 16 C-5.1875 16.5 -5.1875 16.5 -7.1875 15.5 C-9.59130055 12.47299191 -10.18148085 10.84309148 -10.25 6.9375 C-9.1875 3.5 -9.1875 3.5 -6.5 0.9375 C-3.1875 -0.5 -3.1875 -0.5 0 0 Z " fill="#44B99D" transform="translate(91.1875,102.5)"/>
<path d="M0 0 C0.33 0 0.66 0 1 0 C1.08103404 2.91722548 1.14051081 5.83219516 1.1875 8.75 C1.21263672 9.575 1.23777344 10.4 1.26367188 11.25 C1.33834499 17.42297754 1.33834499 17.42297754 -0.51171875 20.578125 C-1.24841797 21.28195313 -1.24841797 21.28195313 -2 22 C-4.86724686 21.42655063 -5.8614515 21.1385485 -8 19 C-8.99 19 -9.98 19 -11 19 C-12.59137369 10.09176682 -12.59137369 10.09176682 -10.375 6 C-6.98110242 3.14198098 -4.44084941 2 0 2 C0 1.34 0 0.68 0 0 Z M-7 9 C-6 11 -6 11 -6 11 Z M-2 10 C-1 14 -1 14 -1 14 Z " fill="#58BDA1" transform="translate(164,99)"/>
<path d="M0 0 C2.97 0.33 5.94 0.66 9 1 C10.38739676 6.37616246 11.38264639 12.63797908 8.5 17.5625 C8.005 18.036875 7.51 18.51125 7 19 C5.66666667 18.66666667 4.33333333 18.33333333 3 18 C2.29875 17.835 1.5975 17.67 0.875 17.5 C-1 17 -1 17 -3 16 C-3.54626051 5.5805865 -3.54626051 5.5805865 0 1 C0 0.67 0 0.34 0 0 Z M2 6 C3 8 3 8 3 8 Z M6 6 C6.33 7.65 6.66 9.3 7 11 C7.33 11 7.66 11 8 11 C8 9.35 8 7.7 8 6 C7.34 6 6.68 6 6 6 Z M2 9 C3 11 3 11 3 11 Z " fill="#48BBA3" transform="translate(71,102)"/>
<path d="M0 0 C2.375 0.3125 2.375 0.3125 5 1 C5.66 1.99 6.32 2.98 7 4 C6.66666667 5.66666667 6.33333333 7.33333333 6 9 C6.99 10.485 6.99 10.485 8 12 C7.83304349 15.25565203 7.17408802 16.77188467 5.1875 19.375 C3 21 3 21 0.9375 21 C-1.55036224 19.71594207 -2.63854054 18.43629587 -4 16 C-3.67 15.01 -3.34 14.02 -3 13 C-2.34 13 -1.68 13 -1 13 C-1.556875 12.113125 -2.11375 11.22625 -2.6875 10.3125 C-3.120625 9.219375 -3.55375 8.12625 -4 7 C-2.75 4.25 -2.75 4.25 -1 2 C-0.67 1.34 -0.34 0.68 0 0 Z M0 12 C1 14 1 14 1 14 Z " fill="#4CBA9D" transform="translate(26,100)"/>
<path d="M0 0 C1.32 0 2.64 0 4 0 C5 3 5 3 5 14 C23.48 13.67 41.96 13.34 61 13 C60.505 11.02 60.505 11.02 60 9 C60.33 8.67 60.66 8.34 61 8 C62.27875 8.04125 63.5575 8.0825 64.875 8.125 C68.0831059 8.20121645 68.0831059 8.20121645 70.875 6.75 C72.07323197 4.88608361 73.09356523 3.0220468 74 1 C75.55077214 7.91882954 75.55077214 7.91882954 73.41601562 12.109375 C71.33445235 14.49611626 70.15480782 14.97286691 66.99211121 15.52719116 C63.00605943 15.69679894 59.06107133 15.67476763 55.07421875 15.5859375 C53.60164623 15.57473913 52.12905128 15.56620196 50.65644836 15.56021118 C46.79085981 15.53736215 42.92663587 15.47847637 39.06158447 15.4119873 C35.11350972 15.35047785 31.16521323 15.32317791 27.21679688 15.29296875 C19.47717204 15.22872562 11.73895149 15.12323674 4 15 C3.67 10.38 3.34 5.76 3 1 C2.01 0.67 1.02 0.34 0 0 Z M62 9 C62 9.33 62 9.66 62 10 C63.98 10 65.96 10 68 10 C68 9.67 68 9.34 68 9 C66.02 9 64.04 9 62 9 Z M63 11 C63 11.33 63 11.66 63 12 C64.98 12 66.96 12 69 12 C69 11.67 69 11.34 69 11 C67.02 11 65.04 11 63 11 Z " fill="#45BB9D" transform="translate(68,84)"/>
<path d="M0 0 C1.65 0 3.3 0 5 0 C5.66 1.65 6.32 3.3 7 5 C7.309375 4.360625 7.61875 3.72125 7.9375 3.0625 C9 1 9 1 10 0 C11.66617115 -0.04063832 13.33388095 -0.042721 15 0 C14.30028399 2.42171214 13.58412718 4.83644025 12.84375 7.24609375 C12.31865111 8.95995819 11.81467663 10.68062213 11.34375 12.41015625 C10.6875 14.5625 10.6875 14.5625 9 18 C5.8125 19 5.8125 19 3 19 C3.2475 18.030625 3.495 17.06125 3.75 16.0625 C4.41139546 11.73256436 2.86900103 8.81379183 0.91015625 5.015625 C0 3 0 3 0 0 Z " fill="#57C1A9" transform="translate(96,103)"/>
<path d="M0 0 C0.33 0 0.66 0 1 0 C1 3.96 1 7.92 1 12 C-0.32 12.33 -1.64 12.66 -3 13 C0.96 13 4.92 13 9 13 C8.67 13.66 8.34 14.32 8 15 C-1.24 15 -10.48 15 -20 15 C-19.67 14.01 -19.34 13.02 -19 12 C-19 12.66 -19 13.32 -19 14 C-17.02 13.67 -15.04 13.34 -13 13 C-13.66 12.01 -14.32 11.02 -15 10 C-14.625 6.3125 -14.625 6.3125 -14 3 C-13.01 2.67 -12.02 2.34 -11 2 C-10.67 3.98 -10.34 5.96 -10 8 C-8.02 7.67 -6.04 7.34 -4 7 C-4 7.66 -4 8.32 -4 9 C-2.68 9.66 -1.36 10.32 0 11 C0 7.37 0 3.74 0 0 Z " fill="#39967A" transform="translate(126,106)"/>
<path d="M0 0 C2.97 0 5.94 0 9 0 C8.01 0.495 8.01 0.495 7 1 C6.48977117 3.64422295 6.48977117 3.64422295 6.3125 6.75 C6.22613281 7.79671875 6.13976562 8.8434375 6.05078125 9.921875 C6.00321835 12.80491852 6.31300695 15.21070489 7 18 C4.625 18.125 4.625 18.125 2 18 C-0.35448092 15.64551908 -0.33616746 14.844948 -0.625 11.625 C-0.69976562 10.85414062 -0.77453125 10.08328125 -0.8515625 9.2890625 C-1.07162677 5.89543983 -1.0823089 3.2469267 0 0 Z M4 8 C5 12 5 12 5 12 Z " fill="#50B59E" transform="translate(129,100)"/>
<path d="M0 0 C13.365 0.495 13.365 0.495 27 1 C24.47871644 3.52128356 23.48760987 3.29353069 19.9921875 3.4140625 C18.51298828 3.47207031 18.51298828 3.47207031 17.00390625 3.53125 C15.45509766 3.57765625 15.45509766 3.57765625 13.875 3.625 C12.83472656 3.66367188 11.79445313 3.70234375 10.72265625 3.7421875 C8.14861689 3.83664766 5.57458845 3.92221214 3 4 C5.88265149 4.96088383 7.67662271 5.11670941 10.66796875 5.09765625 C11.56064453 5.09443359 12.45332031 5.09121094 13.37304688 5.08789062 C14.30181641 5.07951172 15.23058594 5.07113281 16.1875 5.0625 C17.12787109 5.05798828 18.06824219 5.05347656 19.03710938 5.04882812 C21.35813712 5.03704626 23.67903644 5.02059558 26 5 C26 5.99 26 6.98 26 8 C13.13 7.505 13.13 7.505 0 7 C0 4.69 0 2.38 0 0 Z " fill="#99DACA" transform="translate(98,84)"/>
<path d="M0 0 C3 0.5 3 0.5 4.9375 1.625 C6 3.5 6 3.5 5.8125 6.5625 C5 9.5 5 9.5 3 11.5 C-0.625 11.125 -0.625 11.125 -4 10.5 C-5.1875 8.3125 -5.1875 8.3125 -6 5.5 C-4.66227841 1.73765804 -4.00284472 0.66714079 0 0 Z " fill="#27B08F" transform="translate(40,67.5)"/>
<path d="M0 0 C10.89 0 21.78 0 33 0 C33 1.65 33 3.3 33 5 C30.00421196 6.49789402 27.35592581 6.00082655 24.0234375 5.87890625 C23.33819 5.85529526 22.6529425 5.83168427 21.94692993 5.80735779 C19.75607584 5.73072143 17.56557528 5.64669754 15.375 5.5625 C13.89064236 5.50927924 12.40626741 5.45653884 10.921875 5.40429688 C7.28103263 5.2751067 3.64047156 5.13928926 0 5 C0 3.35 0 1.7 0 0 Z M2 1 C2 1.33 2 1.66 2 2 C11.57 2 21.14 2 31 2 C31 1.67 31 1.34 31 1 C21.43 1 11.86 1 2 1 Z M2 3 C2 3.33 2 3.66 2 4 C11.57 4 21.14 4 31 4 C31 3.67 31 3.34 31 3 C21.43 3 11.86 3 2 3 Z " fill="#1C9A88" transform="translate(64,41)"/>
<path d="M0 0 C0.33 0 0.66 0 1 0 C1.33 1.65 1.66 3.3 2 5 C3.79398884 4.74500159 5.58520875 4.47046186 7.375 4.1875 C8.37273437 4.03667969 9.37046875 3.88585937 10.3984375 3.73046875 C13.3287364 3.21227702 13.3287364 3.21227702 15 0 C15 3 15 6 15 9 C12.73437327 11.26562673 11.15839295 11.94462749 7.95703125 12.09765625 C7.24933594 12.08605469 6.54164063 12.07445313 5.8125 12.0625 C3.9253125 12.0315625 3.9253125 12.0315625 2 12 C0.00214565 7.8794254 -0.17835515 4.54805635 0 0 Z " fill="#49B999" transform="translate(136,107)"/>
<path d="M0 0 C1.98 0.66 3.96 1.32 6 2 C6.625 4.3125 6.625 4.3125 7 7 C6.01 8.485 6.01 8.485 5 10 C3.0546875 10.29296875 3.0546875 10.29296875 0.875 10.1875 C-0.40375 10.125625 -1.6825 10.06375 -3 10 C-3.66 8.35 -4.32 6.7 -5 5 C-3.35 3.35 -1.7 1.7 0 0 Z " fill="#2DB394" transform="translate(132,82)"/>
<path d="M0 0 C0.33 0.66 0.66 1.32 1 2 C1.66 2 2.32 2 3 2 C3.33 3.65 3.66 5.3 4 7 C5.32 7 6.64 7 8 7 C8.66 4.69 9.32 2.38 10 0 C10.33 0 10.66 0 11 0 C11.4726477 8.19256018 11.4726477 8.19256018 9.5 11.5625 C9.005 12.036875 8.51 12.51125 8 13 C5.13275314 12.42655063 4.1385485 12.1385485 2 10 C1.01 10 0.02 10 -1 10 C-1.02689216 8.52093108 -1.04634621 7.04172517 -1.0625 5.5625 C-1.07410156 4.73878906 -1.08570313 3.91507812 -1.09765625 3.06640625 C-1 1 -1 1 0 0 Z " fill="#4BBBA1" transform="translate(154,108)"/>
<path d="M0 0 C3 0.125 3 0.125 4 1.125 C4.1875 4.0625 4.1875 4.0625 4 7.125 C2 9.125 2 9.125 -1.625 9.25 C-2.73875 9.20875 -3.8525 9.1675 -5 9.125 C-6 7.125 -6 7.125 -5.125 4.0625 C-3.62702703 0.15112613 -3.62702703 0.15112613 0 0 Z " fill="#24AF8D" transform="translate(110,144.875)"/>
<path d="M0 0 C1.22160225 4.33471766 1.49303674 8.52158299 1 13 C-0.5 15.5625 -0.5 15.5625 -2 17 C-3.875 16.6875 -3.875 16.6875 -6 16 C-6.66 15.01 -7.32 14.02 -8 13 C-6.35 12.67 -4.7 12.34 -3 12 C-4.32 11.67 -5.64 11.34 -7 11 C-6.67 8.36 -6.34 5.72 -6 3 C-4.02 3 -2.04 3 0 3 C0 2.01 0 1.02 0 0 Z M-3 4 C-2.67 5.65 -2.34 7.3 -2 9 C-1.67 9 -1.34 9 -1 9 C-1 7.35 -1 5.7 -1 4 C-1.66 4 -2.32 4 -3 4 Z " fill="#76CAB7" transform="translate(80,104)"/>
<path d="M0 0 C1.2065625 0.0309375 1.2065625 0.0309375 2.4375 0.0625 C-1.79300139 14.58722145 -1.79300139 14.58722145 -4.6875 16.375 C-5.615625 16.7153125 -5.615625 16.7153125 -6.5625 17.0625 C-6.5625 14.7525 -6.5625 12.4425 -6.5625 10.0625 C-5.9025 9.7325 -5.2425 9.4025 -4.5625 9.0625 C-4.1345382 7.19940908 -4.1345382 7.19940908 -4 5.0625 C-3.56463871 0.08694241 -3.56463871 0.08694241 0 0 Z " fill="#24B08F" transform="translate(108.5625,102.9375)"/>
<path d="M0 0 C0.70125 0.268125 1.4025 0.53625 2.125 0.8125 C2.125 1.1425 2.125 1.4725 2.125 1.8125 C0.145 1.8125 -1.835 1.8125 -3.875 1.8125 C-3.875 2.4725 -3.875 3.1325 -3.875 3.8125 C-2.225 3.8125 -0.575 3.8125 1.125 3.8125 C1.125 4.8025 1.125 5.7925 1.125 6.8125 C0.135 6.8125 -0.855 6.8125 -1.875 6.8125 C-1.875 7.8025 -1.875 8.7925 -1.875 9.8125 C-0.885 9.4825 0.105 9.1525 1.125 8.8125 C0.795 10.1325 0.465 11.4525 0.125 12.8125 C-1.525 12.4825 -3.175 12.1525 -4.875 11.8125 C-4.875 9.8325 -4.875 7.8525 -4.875 5.8125 C-5.865 6.3075 -5.865 6.3075 -6.875 6.8125 C-7.53055119 9.33983235 -7.53055119 9.33983235 -7.875 11.8125 C-8.205 11.8125 -8.535 11.8125 -8.875 11.8125 C-9.58274468 5.79667021 -9.58274468 5.79667021 -7.71484375 3.19921875 C-5.12091994 0.84412169 -3.53627813 -0.23062683 0 0 Z M-3.875 5.8125 C-3.875 7.4625 -3.875 9.1125 -3.875 10.8125 C-3.545 10.8125 -3.215 10.8125 -2.875 10.8125 C-2.875 9.1625 -2.875 7.5125 -2.875 5.8125 C-3.205 5.8125 -3.535 5.8125 -3.875 5.8125 Z " fill="#6FBFAC" transform="translate(119.875,102.1875)"/>
<path d="M0 0 C2.6875 1.375 2.6875 1.375 3.6875 3.375 C2.3675 3.375 1.0475 3.375 -0.3125 3.375 C0.0175 4.365 0.3475 5.355 0.6875 6.375 C-1.9525 6.375 -4.5925 6.375 -7.3125 6.375 C-7.6425 8.355 -7.9725 10.335 -8.3125 12.375 C-8.9725 11.715 -9.6325 11.055 -10.3125 10.375 C-10.3125 7 -10.3125 7 -9.3125 3.375 C-5.99424042 0.21107808 -4.57592311 -0.86338172 0 0 Z " fill="#73CEBA" transform="translate(91.3125,102.625)"/>
<path d="M0 0 C2.375 0.3125 2.375 0.3125 5 1 C7 4 7 4 6.5625 6.5625 C6.376875 7.366875 6.19125 8.17125 6 9 C6.33 9.66 6.66 10.32 7 11 C6.21625 10.979375 5.4325 10.95875 4.625 10.9375 C2.01885039 10.81315937 2.01885039 10.81315937 0 12 C0 10.35 0 8.7 0 7 C1.98 7 3.96 7 6 7 C6 6.34 6 5.68 6 5 C3.69 5 1.38 5 -1 5 C-1.33 6.65 -1.66 8.3 -2 10 C-2.66 9.01 -3.32 8.02 -4 7 C-3.525625 6.21625 -3.05125 5.4325 -2.5625 4.625 C-1.66101977 3.11051322 -0.78820515 1.5764103 0 0 Z " fill="#74C8B6" transform="translate(26,100)"/>
<path d="M0 0 C1.65 0.33 3.3 0.66 5 1 C5.33 2.65 5.66 4.3 6 6 C2.32589215 7.17571451 -1.16929183 7.07366746 -5 7 C-5.33 7.99 -5.66 8.98 -6 10 C-6.33 10 -6.66 10 -7 10 C-7 8.02 -7 6.04 -7 4 C-3.93109813 2.46554906 -1.29905734 3.45015711 2 4 C1.34 2.68 0.68 1.36 0 0 Z " fill="#06A680" transform="translate(90,105)"/>
<path d="M0 0 C3.5 0.8125 3.5 0.8125 7 2 C7.99 2.33 8.98 2.66 10 3 C9.67 3.99 9.34 4.98 9 6 C8.34 5.67 7.68 5.34 7 5 C7 5.99 7 6.98 7 8 C5.02 8 3.04 8 1 8 C0.67 7.01 0.34 6.02 0 5 C-0.99 4.67 -1.98 4.34 -3 4 C-3 3.34 -3 2.68 -3 2 C-2.01 1.34 -1.02 0.68 0 0 Z " fill="#5FC1A8" transform="translate(140,101)"/>
<path d="M0 0 C21.78 0.495 21.78 0.495 44 1 C44.495 1.99 44.495 1.99 45 3 C30.15 3 15.3 3 0 3 C0 2.01 0 1.02 0 0 Z " fill="#74CBB5" transform="translate(90,59)"/>
<path d="M0 0 C3 3.75 3 3.75 3 6 C4.65 6 6.3 6 8 6 C8.33 6.66 8.66 7.32 9 8 C6.69 8 4.38 8 2 8 C2 9.65 2 11.3 2 13 C1.01 13 0.02 13 -1 13 C-1.02686553 11.02090602 -1.04633375 9.04171029 -1.0625 7.0625 C-1.07410156 5.96035156 -1.08570313 4.85820313 -1.09765625 3.72265625 C-1 1 -1 1 0 0 Z " fill="#0EA984" transform="translate(37,109)"/>
<path d="M0 0 C6.6 0 13.2 0 20 0 C20.33 0.66 20.66 1.32 21 2 C20.40461426 2.01981934 19.80922852 2.03963867 19.19580078 2.06005859 C16.50507847 2.15516126 13.81514852 2.26489842 11.125 2.375 C10.18785156 2.4059375 9.25070313 2.436875 8.28515625 2.46875 C7.38925781 2.50742188 6.49335937 2.54609375 5.5703125 2.5859375 C4.74289551 2.6173584 3.91547852 2.6487793 3.06298828 2.68115234 C0.78013915 2.82599137 0.78013915 2.82599137 -1 5 C-0.67 3.35 -0.34 1.7 0 0 Z " fill="#62C5AF" transform="translate(79,122)"/>
<path d="M0 0 C2 1 2 1 3 3 C3.33 2.34 3.66 1.68 4 1 C4.99 1.33 5.98 1.66 7 2 C6.67 2.99 6.34 3.98 6 5 C6.66 5.33 7.32 5.66 8 6 C8 10.95 8 15.9 8 21 C7.67 21 7.34 21 7 21 C6.67 16.38 6.34 11.76 6 7 C3.03 6.505 3.03 6.505 0 6 C-0.38218767 4.34385343 -0.71395102 2.67542976 -1 1 C-0.67 0.67 -0.34 0.34 0 0 Z " fill="#428D6A" transform="translate(102,122)"/>
<path d="M0 0 C0.99 0 1.98 0 3 0 C3 0.66 3 1.32 3 2 C4.65 1.67 6.3 1.34 8 1 C7.38722388 3.96175123 6.74627478 5.38058783 5 8 C3.02 7.34 1.04 6.68 -1 6 C-1.33 7.32 -1.66 8.64 -2 10 C-2 8.35 -2 6.7 -2 5 C-1.01 4.67 -0.02 4.34 1 4 C0.34 3.67 -0.32 3.34 -1 3 C-0.67 2.01 -0.34 1.02 0 0 Z " fill="#5AC4A5" transform="translate(41,112)"/>
<path d="M0 0 C1.32 0 2.64 0 4 0 C4.8723412 2.99480917 5.10829766 5.63575911 5.0625 8.75 C5.05347656 9.54921875 5.04445313 10.3484375 5.03515625 11.171875 C5.01775391 12.07679687 5.01775391 12.07679687 5 13 C4.01 13 3.02 13 2 13 C2 12.34 2 11.68 2 11 C1.34 10.67 0.68 10.34 0 10 C0.66 9.01 1.32 8.02 2 7 C1.19351312 3.34329469 1.19351312 3.34329469 0 0 Z " fill="#0CA984" transform="translate(62,105)"/>
<path d="M0 0 C0.99 0.33 1.98 0.66 3 1 C2.62875 2.60875 2.62875 2.60875 2.25 4.25 C1.57571378 8.02745496 1.57571378 8.02745496 3.9375 10.4375 C4.618125 10.953125 5.29875 11.46875 6 12 C4.00045254 12.04254356 1.99958364 12.04080783 0 12 C-1 11 -1 11 -1.1328125 9.00390625 C-1.13023438 8.19824219 -1.12765625 7.39257812 -1.125 6.5625 C-1.12757812 5.75941406 -1.13015625 4.95632812 -1.1328125 4.12890625 C-1 2 -1 2 0 0 Z " fill="#11AA85" transform="translate(54,105)"/>
<path d="M0 0 C0.33 0 0.66 0 1 0 C1 3 1 6 1 9 C0.01 9.33 -0.98 9.66 -2 10 C-2 9.34 -2 8.68 -2 8 C-3.175625 8.0928125 -3.175625 8.0928125 -4.375 8.1875 C-5.674375 8.0946875 -5.674375 8.0946875 -7 8 C-7.66 7.01 -8.32 6.02 -9 5 C-8.43410156 4.89042969 -7.86820313 4.78085938 -7.28515625 4.66796875 C-6.18494141 4.43013672 -6.18494141 4.43013672 -5.0625 4.1875 C-4.33160156 4.03667969 -3.60070312 3.88585937 -2.84765625 3.73046875 C-2.23792969 3.48941406 -1.62820312 3.24835938 -1 3 C-0.67 2.01 -0.34 1.02 0 0 Z " fill="#86C3B6" transform="translate(150,107)"/>
<path d="M0 0 C-2.99578804 1.49789402 -5.64407419 1.00082655 -8.9765625 0.87890625 C-9.66181 0.85529526 -10.3470575 0.83168427 -11.05307007 0.80735779 C-13.24392416 0.73072143 -15.43442472 0.64669754 -17.625 0.5625 C-19.10935764 0.50927924 -20.59373259 0.45653884 -22.078125 0.40429688 C-25.71896737 0.2751067 -29.35952844 0.13928926 -33 0 C-33 -0.33 -33 -0.66 -33 -1 C-28.62218616 -1.19218929 -24.24409441 -1.37092139 -19.86523438 -1.53710938 C-18.37517512 -1.59556854 -16.88525624 -1.65772629 -15.39550781 -1.72363281 C-13.25611936 -1.81764056 -11.11658132 -1.89840682 -8.9765625 -1.9765625 C-7.68830566 -2.02893066 -6.40004883 -2.08129883 -5.07275391 -2.13525391 C-2 -2 -2 -2 0 0 Z " fill="#9FE0CC" transform="translate(97,46)"/>
<path d="M0 0 C0.66 1.32 1.32 2.64 2 4 C1.01 4.495 1.01 4.495 0 5 C0 3.35 0 1.7 0 0 Z M-5 3 C-4.01 3.33 -3.02 3.66 -2 4 C-2.66 4 -3.32 4 -4 4 C-4 4.66 -4 5.32 -4 6 C-2.35 6.33 -0.7 6.66 1 7 C1 7.66 1 8.32 1 9 C-1.8125 9.625 -1.8125 9.625 -5 10 C-5.99 9.34 -6.98 8.68 -8 8 C-7.01 7.67 -6.02 7.34 -5 7 C-5.33 6.34 -5.66 5.68 -6 5 C-5.67 4.34 -5.34 3.68 -5 3 Z " fill="#4ABE9E" transform="translate(63,109)"/>
<path d="M0 0 C2.32789515 2.83395931 3.07377893 4.29511572 4 8 C-2.27 8 -8.54 8 -15 8 C-15 7.67 -15 7.34 -15 7 C-10.05 6.67 -5.1 6.34 0 6 C0 4.02 0 2.04 0 0 Z " fill="#68C5AE" transform="translate(126,49)"/>
<path d="M0 0 C0.33 0 0.66 0 1 0 C2.56659619 6.98942918 2.56659619 6.98942918 0.953125 9.8671875 C-0.4375 11.5 -0.4375 11.5 -3 14 C-3.33 13.34 -3.66 12.68 -4 12 C-5.98 12 -7.96 12 -10 12 C-10 11.67 -10 11.34 -10 11 C-8.88625 10.71125 -7.7725 10.4225 -6.625 10.125 C-2.99708908 9.30758671 -2.99708908 9.30758671 -1 7 C-0.59952556 4.67724823 -0.2602896 2.34260643 0 0 Z " fill="#ACE0D4" transform="translate(141,85)"/>
<path d="M0 0 C0.66 0 1.32 0 2 0 C1.67 4.29 1.34 8.58 1 13 C-0.65 12.67 -2.3 12.34 -4 12 C-3.525625 11.13375 -3.05125 10.2675 -2.5625 9.375 C-1.06765105 6.14612626 -0.41781687 3.50966174 0 0 Z " fill="#0CA382" transform="translate(125,104)"/>
<path d="M0 0 C0.66 0.33 1.32 0.66 2 1 C0.53289058 5.84146109 -2.3512744 9.55948972 -6 13 C-6.66 13 -7.32 13 -8 13 C-6.59578698 8.53204949 -4.3156598 6.23064288 -1 3 C-0.67 2.01 -0.34 1.02 0 0 Z " fill="#52B49E" transform="translate(39,26)"/>
<path d="M0 0 C0.33 0 0.66 0 1 0 C1 5.28 1 10.56 1 16 C1.66 16.33 2.32 16.66 3 17 C2.34 17.99 1.68 18.98 1 20 C1 19.34 1 18.68 1 18 C0.34 18 -0.32 18 -1 18 C-0.505 9.09 -0.505 9.09 0 0 Z " fill="#76C9B5" transform="translate(141,128)"/>
<path d="M0 0 C1.32 0.66 2.64 1.32 4 2 C4 3.98 4 5.96 4 8 C2.35 8 0.7 8 -1 8 C-0.67 5.36 -0.34 2.72 0 0 Z " fill="#80C8AF" transform="translate(74,107)"/>
<path d="M0 0 C7.42857143 3.14285714 7.42857143 3.14285714 11 5 C8.24075815 6.80411967 7.11027897 7.0127245 3.75 6.625 C2.8425 6.41875 1.935 6.2125 1 6 C0.67 4.02 0.34 2.04 0 0 Z " fill="#6DC5B4" transform="translate(138,64)"/>
<path d="M0 0 C2.475 0.99 2.475 0.99 5 2 C5 3.98 5 5.96 5 8 C3.68 7.67 2.36 7.34 1 7 C0.67 4.69 0.34 2.38 0 0 Z " fill="#82D1BF" transform="translate(157,107)"/>
<path d="M0 0 C1.65 0 3.3 0 5 0 C4.34 2.31 3.68 4.62 3 7 C2.67 6.34 2.34 5.68 2 5 C1.01 5 0.02 5 -1 5 C-0.67 3.35 -0.34 1.7 0 0 Z " fill="#68C8B0" transform="translate(106,103)"/>
<path d="M0 0 C0.33 0.99 0.66 1.98 1 3 C0 4 0 4 -1.85766602 4.11352539 C-2.64842529 4.10828857 -3.43918457 4.10305176 -4.25390625 4.09765625 C-5.10791016 4.09443359 -5.96191406 4.09121094 -6.84179688 4.08789062 C-7.73962891 4.07951172 -8.63746094 4.07113281 -9.5625 4.0625 C-10.46419922 4.05798828 -11.36589844 4.05347656 -12.29492188 4.04882812 C-14.53001314 4.03700225 -16.76497437 4.0205222 -19 4 C-19 3.67 -19 3.34 -19 3 C-16.75013201 2.83156069 -14.50009983 2.66531346 -12.25 2.5 C-10.37054688 2.36078125 -10.37054688 2.36078125 -8.453125 2.21875 C-5.97265229 2.06161598 -3.48544483 2 -1 2 C-0.67 1.34 -0.34 0.68 0 0 Z " fill="#25635E" transform="translate(98,117)"/>
<path d="M0 0 C1.32 0.33 2.64 0.66 4 1 C4 4.63 4 8.26 4 12 C3.34 12 2.68 12 2 12 C2 8.7 2 5.4 2 2 C1.34 2 0.68 2 0 2 C0 1.34 0 0.68 0 0 Z " fill="#06A57F" transform="translate(174,105)"/>
<path d="M0 0 C0.33 0 0.66 0 1 0 C1 2.97 1 5.94 1 9 C-0.98 9 -2.96 9 -5 9 C-5 8.34 -5 7.68 -5 7 C-4.01 7 -3.02 7 -2 7 C-1.34 4.69 -0.68 2.38 0 0 Z " fill="#34AC99" transform="translate(164,108)"/>
<path d="M0 0 C0.33 0 0.66 0 1 0 C1.66 2.64 2.32 5.28 3 8 C4.65 8 6.3 8 8 8 C7.67 8.66 7.34 9.32 7 10 C5.02 10 3.04 10 1 10 C-0.60725635 6.78548731 -0.05748185 3.56387464 0 0 Z " fill="#0BA882" transform="translate(70,107)"/>
<path d="M0 0 C0 0.33 0 0.66 0 1 C-7.68604474 1.97159933 -15.25863399 2.10920422 -23 2 C-23 1.67 -23 1.34 -23 1 C-15.307359 0.15199233 -7.73708326 -0.12152487 0 0 Z " fill="#93B7B7" transform="translate(77,16)"/>
<path d="M0 0 C1.99954746 -0.04254356 4.00041636 -0.04080783 6 0 C7 1 7 1 7.0625 4.0625 C7.041875 5.031875 7.02125 6.00125 7 7 C6.01 7.495 6.01 7.495 5 8 C5 6.02 5 4.04 5 2 C3.02 2 1.04 2 -1 2 C-0.67 1.34 -0.34 0.68 0 0 Z " fill="#7BC6B5" transform="translate(107,145)"/>
<path d="M0 0 C2.31 0 4.62 0 7 0 C7 0.66 7 1.32 7 2 C5.02 2 3.04 2 1 2 C1.33 2.99 1.66 3.98 2 5 C1.34 5.99 0.68 6.98 0 8 C-1.125 2.25 -1.125 2.25 0 0 Z " fill="#19A584" transform="translate(25,105)"/>
<path d="M0 0 C2 2 2 2 2 6 C-3.61 6 -9.22 6 -15 6 C-15 5.67 -15 5.34 -15 5 C-10.05 5 -5.1 5 0 5 C-0.33 3.68 -0.66 2.36 -1 1 C-0.67 0.67 -0.34 0.34 0 0 Z " fill="#59C8A7" transform="translate(104,51)"/>
<path d="M0 0 C2 2 2 2 2 6 C-2.07369424 8.03684712 -4.58937864 8.0257259 -9 7 C-9 6.67 -9 6.34 -9 6 C-6.03 5.34 -3.06 4.68 0 4 C0 2.68 0 1.36 0 0 Z " fill="#96D5C5" transform="translate(95,106)"/>
<path d="M0 0 C0.66 0 1.32 0 2 0 C2 1.32 2 2.64 2 4 C1.34 4 0.68 4 0 4 C0.66 6.31 1.32 8.62 2 11 C0.68 10.34 -0.64 9.68 -2 9 C-1.125 1.125 -1.125 1.125 0 0 Z " fill="#31B490" transform="translate(113,108)"/>
<path d="M0 0 C0.99 0 1.98 0 3 0 C3.33 1.65 3.66 3.3 4 5 C2.02 5.99 2.02 5.99 0 7 C-0.93423645 3.98968256 -1.04449911 3.13349732 0 0 Z " fill="#07A680" transform="translate(130,101)"/>
<path d="M0 0 C-0.66 0 -1.32 0 -2 0 C-2 0.99 -2 1.98 -2 3 C-0.02 3 1.96 3 4 3 C4 3.33 4 3.66 4 4 C0.66666667 4 -2.66666667 4 -6 4 C-6 2.68 -6 1.36 -6 0 C-3 -1 -3 -1 0 0 Z " fill="#1EAD8C" transform="translate(143,106)"/>
<path d="M0 0 C1.4540625 0.0309375 1.4540625 0.0309375 2.9375 0.0625 C2.31875 0.475 1.7 0.8875 1.0625 1.3125 C-1.13018281 3.11823879 -1.99038417 4.4715534 -3.0625 7.0625 C-4.0525 6.7325 -5.0425 6.4025 -6.0625 6.0625 C-3.76028481 0.07674051 -3.76028481 0.07674051 0 0 Z " fill="#50BFA5" transform="translate(40.0625,67.9375)"/>
<path d="M0 0 C-0.33 0.99 -0.66 1.98 -1 3 C-1.66 3 -2.32 3 -3 3 C-3.33 4.98 -3.66 6.96 -4 9 C-6 7 -6 7 -6.3125 4.5 C-6.209375 3.675 -6.10625 2.85 -6 2 C-3 0 -3 0 0 0 Z " fill="#61C5AD" transform="translate(87,106)"/>
<path d="M0 0 C0.33 0 0.66 0 1 0 C1.33 4.95 1.66 9.9 2 15 C1.01 15.495 1.01 15.495 0 16 C-0.99 15.34 -1.98 14.68 -3 14 C-2.01 14 -1.02 14 0 14 C0 9.38 0 4.76 0 0 Z " fill="#5CB9AD" transform="translate(111,129)"/>
<path d="M0 0 C0.66 1.32 1.32 2.64 2 4 C2.66 3.67 3.32 3.34 4 3 C4 3.99 4 4.98 4 6 C2.02 6.33 0.04 6.66 -2 7 C-1.34 4.69 -0.68 2.38 0 0 Z " fill="#77C5B3" transform="translate(101,115)"/>
<path d="M0 0 C2.64 0.33 5.28 0.66 8 1 C8 1.33 8 1.66 8 2 C6.35 2.33 4.7 2.66 3 3 C3.99 4.485 3.99 4.485 5 6 C3.35 6 1.7 6 0 6 C0 4.02 0 2.04 0 0 Z " fill="#6ABDBD" transform="translate(98,84)"/>
<path d="M0 0 C0.33 1.32 0.66 2.64 1 4 C3.31 4 5.62 4 8 4 C7.01 4.33 6.02 4.66 5 5 C5 5.66 5 6.32 5 7 C4.01 7 3.02 7 2 7 C2 6.34 2 5.68 2 5 C1.34 5 0.68 5 0 5 C0 3.35 0 1.7 0 0 Z " fill="#23AF8E" transform="translate(169,100)"/>
<path d="M0 0 C1.65 0.33 3.3 0.66 5 1 C5 1.66 5 2.32 5 3 C4.34 3 3.68 3 3 3 C3 3.66 3 4.32 3 5 C0.69 5 -1.62 5 -4 5 C-4 4.67 -4 4.34 -4 4 C-2.02 4 -0.04 4 2 4 C1.34 2.68 0.68 1.36 0 0 Z " fill="#1CAD8B" transform="translate(90,105)"/>
<path d="M0 0 C1.32 1.65 2.64 3.3 4 5 C1.69 5 -0.62 5 -3 5 C-1.125 1.125 -1.125 1.125 0 0 Z " fill="#95D8C8" transform="translate(47,78)"/>
<path d="M0 0 C0.66 0.66 1.32 1.32 2 2 C1.34 3.32 0.68 4.64 0 6 C1.32 6.33 2.64 6.66 4 7 C2.02 7 0.04 7 -2 7 C-2.125 4.625 -2.125 4.625 -2 2 C-1.34 1.34 -0.68 0.68 0 0 Z " fill="#59B39E" transform="translate(82,65)"/>
<path d="M0 0 C0.33 0 0.66 0 1 0 C1 3.63 1 7.26 1 11 C0.67 11 0.34 11 0 11 C0 7.37 0 3.74 0 0 Z " fill="#007F73" transform="translate(139,128)"/>
<path d="M0 0 C0.33 0 0.66 0 1 0 C1 3.63 1 7.26 1 11 C0.67 11 0.34 11 0 11 C0 7.37 0 3.74 0 0 Z " fill="#399696" transform="translate(181,107)"/>
<path d="M0 0 C2.97 0.33 5.94 0.66 9 1 C5.16380575 1.95904856 3.67568464 1.91892116 0 1 C0 0.67 0 0.34 0 0 Z " fill="#72AEA1" transform="translate(105,28)"/>
<path d="M0 0 C1.0625 1.875 1.0625 1.875 2 4 C1.67 4.66 1.34 5.32 1 6 C0.34 5.67 -0.32 5.34 -1 5 C-0.67 3.35 -0.34 1.7 0 0 Z " fill="#5E9B75" transform="translate(109,110)"/>
<path d="M0 0 C1.67542976 0.28604898 3.34385343 0.61781233 5 1 C1.25 2.125 1.25 2.125 -1 1 C-0.67 0.67 -0.34 0.34 0 0 Z " fill="#9FDFDF" transform="translate(41,100)"/>
<path d="M0 0 C0.33 0 0.66 0 1 0 C1 2.31 1 4.62 1 7 C0.67 7 0.34 7 0 7 C0 4.69 0 2.38 0 0 Z " fill="#61D4C2" transform="translate(125,135)"/>
<path d="M0 0 C0.66 0.33 1.32 0.66 2 1 C1.34 2.32 0.68 3.64 0 5 C-0.5625 3.0625 -0.5625 3.0625 -1 1 C-0.67 0.67 -0.34 0.34 0 0 Z " fill="#5AA3A3" transform="translate(156,119)"/>
<path d="M0 0 C0.66 0.33 1.32 0.66 2 1 C0.02 1.99 0.02 1.99 -2 3 C-2.33 2.34 -2.66 1.68 -3 1 C-2.01 0.67 -1.02 0.34 0 0 Z " fill="#5BA37F" transform="translate(64,100)"/>
<path d="M0 0 C2.31 0 4.62 0 7 0 C7 0.33 7 0.66 7 1 C4.69 1 2.38 1 0 1 C0 0.67 0 0.34 0 0 Z " fill="#5AC86D" transform="translate(44,84)"/>
<path d="M0 0 C1.98 0 3.96 0 6 0 C6 0.33 6 0.66 6 1 C4.02 1 2.04 1 0 1 C0 0.67 0 0.34 0 0 Z " fill="#156954" transform="translate(101,163)"/>
<path d="M0 0 C0.33 0.99 0.66 1.98 1 3 C0.34 3.66 -0.32 4.32 -1 5 C-0.67 3.35 -0.34 1.7 0 0 Z " fill="#6AA994" transform="translate(153,133)"/>
<path d="M0 0 C0.33 0 0.66 0 1 0 C1 1.65 1 3.3 1 5 C0.34 3.68 -0.32 2.36 -1 1 C-0.67 0.67 -0.34 0.34 0 0 Z " fill="#43E6C6" transform="translate(33,117)"/>
<path d="M0 0 C1.32 0.33 2.64 0.66 4 1 C2.68 1 1.36 1 0 1 C0 0.67 0 0.34 0 0 Z " fill="#3F6A6A" transform="translate(166,119)"/>
<path d="M0 0 C1.98 0 3.96 0 6 0 C6 0.33 6 0.66 6 1 C4.02 1 2.04 1 0 1 C0 0.67 0 0.34 0 0 Z " fill="#15CD71" transform="translate(61,119)"/>
<path d="M0 0 C0.99 0.495 0.99 0.495 2 1 C1.67 2.32 1.34 3.64 1 5 C0.67 3.35 0.34 1.7 0 0 Z " fill="#63A69B" transform="translate(102,103)"/>
<path d="M0 0 C2.475 0.495 2.475 0.495 5 1 C4.01 1.33 3.02 1.66 2 2 C1.34 1.34 0.68 0.68 0 0 Z " fill="#BFD4D4" transform="translate(142,100)"/>
<path d="M0 0 C1.98 0.495 1.98 0.495 4 1 C2.35 1.33 0.7 1.66 -1 2 C-0.67 1.34 -0.34 0.68 0 0 Z " fill="#E9E9E9" transform="translate(157,100)"/>
<path d="M0 0 C0.33 0.99 0.66 1.98 1 3 C0.34 3.66 -0.32 4.32 -1 5 C-0.67 3.35 -0.34 1.7 0 0 Z " fill="#4D9B9B" transform="translate(153,78)"/>
<path d="M0 0 C1.32 0.66 2.64 1.32 4 2 C2.35 2 0.7 2 -1 2 C-0.67 1.34 -0.34 0.68 0 0 Z " fill="#869B86" transform="translate(95,25)"/>
<path d="M0 0 C1.65 0 3.3 0 5 0 C5 0.33 5 0.66 5 1 C3.35 1 1.7 1 0 1 C0 0.67 0 0.34 0 0 Z " fill="#65FFCC" transform="translate(93,164)"/>
<path d="M0 0 C0.33 0 0.66 0 1 0 C1 1.65 1 3.3 1 5 C0.67 5 0.34 5 0 5 C0 3.35 0 1.7 0 0 Z " fill="#337F7F" transform="translate(82,144)"/>
<path d="M0 0 C0.33 0 0.66 0 1 0 C1 1.65 1 3.3 1 5 C0.67 5 0.34 5 0 5 C0 3.35 0 1.7 0 0 Z " fill="#009865" transform="translate(70,93)"/>
<path d="M0 0 C0.99 0 1.98 0 3 0 C3 0.66 3 1.32 3 2 C2.01 1.67 1.02 1.34 0 1 C0 0.67 0 0.34 0 0 Z " fill="#669999" transform="translate(123,87)"/>
<path d="M0 0 C0.66 0.66 1.32 1.32 2 2 C1.01 2 0.02 2 -1 2 C-0.67 1.34 -0.34 0.68 0 0 Z " fill="#00DD88" transform="translate(84,63)"/>
<path d="M0 0 C0.66 0.66 1.32 1.32 2 2 C1.01 2 0.02 2 -1 2 C-0.67 1.34 -0.34 0.68 0 0 Z " fill="#00D4D4" transform="translate(87,60)"/>
<path d="M0 0 C0.99 0.495 0.99 0.495 2 1 C1.67 1.99 1.34 2.98 1 4 C0.67 2.68 0.34 1.36 0 0 Z " fill="#4CB27F" transform="translate(123,40)"/>
<path d="M0 0 C1 4 1 4 1 4 Z " fill="#7FBFBF" transform="translate(154,129)"/>
<path d="M0 0 C1 4 1 4 1 4 Z " fill="#5F9F7F" transform="translate(76,123)"/>
<path d="M0 0 C4 1 4 1 4 1 Z " fill="#5F9F5F" transform="translate(175,119)"/>
<path d="M0 0 C0.66 0.66 1.32 1.32 2 2 C1.01 2.495 1.01 2.495 0 3 C0 2.01 0 1.02 0 0 Z " fill="#00BFAF" transform="translate(68,103)"/>
<path d="M0 0 C0.99 0.33 1.98 0.66 3 1 C2.01 1 1.02 1 0 1 C0 0.67 0 0.34 0 0 Z " fill="#7FBFBF" transform="translate(36,100)"/>
<path d="M0 0 C4 1 4 1 4 1 Z " fill="#359F74" transform="translate(51,83)"/>
<path d="M0 0 C0 3 0 3 0 3 Z " fill="#2A9494" transform="translate(46,76)"/>
<path d="M0 0 C1 4 1 4 1 4 Z " fill="#3F7F7F" transform="translate(154,74)"/>
<path d="M0 0 C0.99 0.495 0.99 0.495 2 1 C1.67 1.66 1.34 2.32 1 3 C0.67 2.01 0.34 1.02 0 0 Z " fill="#7F9F9F" transform="translate(125,44)"/>
<path d="M0 0 C4 1 4 1 4 1 Z " fill="#35A94A" transform="translate(99,27)"/>
<path d="M0 0 C0.99 0.33 1.98 0.66 3 1 C2.01 1 1.02 1 0 1 C0 0.67 0 0.34 0 0 Z " fill="#359494" transform="translate(83,26)"/>
<path d="M0 0 C4 1 4 1 4 1 Z " fill="#5F9F7F" transform="translate(50,18)"/>
<path d="" fill="#55D47F" transform="translate(0,0)"/>
<path d="" fill="#00AA7F" transform="translate(0,0)"/>
<path d="" fill="#557F7F" transform="translate(0,0)"/>
<path d="M0 0 C3 1 3 1 3 1 Z " fill="#FFFFFF" transform="translate(36,124)"/>
<path d="M0 0 C3 1 3 1 3 1 Z " fill="#7FFFD4" transform="translate(142,120)"/>
<path d="M0 0 C3 1 3 1 3 1 Z " fill="#FFFFFF" transform="translate(58,120)"/>
<path d="" fill="#007F55" transform="translate(0,0)"/>
<path d="M0 0 C0.99 0.495 0.99 0.495 2 1 C1.01 1.495 1.01 1.495 0 2 C0 1.34 0 0.68 0 0 Z " fill="#558D71" transform="translate(151,105)"/>
<path d="M0 0 C0.99 0.495 0.99 0.495 2 1 C1.01 1.495 1.01 1.495 0 2 C0 1.34 0 0.68 0 0 Z " fill="#9BE2B8" transform="translate(112,103)"/>
<path d="M0 0 C3 1 3 1 3 1 Z " fill="#007F55" transform="translate(167,97)"/>
<path d="" fill="#15CD46" transform="translate(0,0)"/>
<path d="M0 0 C3 1 3 1 3 1 Z " fill="#005555" transform="translate(39,80)"/>
<path d="M0 0 C0.99 0.495 0.99 0.495 2 1 C1.01 1.495 1.01 1.495 0 2 C0 1.34 0 0.68 0 0 Z " fill="#7FFFFF" transform="translate(43,79)"/>
<path d="" fill="#2AC6C6" transform="translate(0,0)"/>
<path d="M0 0 C0.33 0.66 0.66 1.32 1 2 C0.34 1.67 -0.32 1.34 -1 1 C-0.67 0.67 -0.34 0.34 0 0 Z " fill="#00BFA9" transform="translate(79,68)"/>
<path d="" fill="#1CE2B8" transform="translate(0,0)"/>
<path d="" fill="#2A7F7F" transform="translate(0,0)"/>
<path d="M0 0 C0.66 0.66 1.32 1.32 2 2 C1.34 2 0.68 2 0 2 C0 1.34 0 0.68 0 0 Z " fill="#007F2A" transform="translate(23,66)"/>
<path d="M0 0 C3 1 3 1 3 1 Z " fill="#AAC6C6" transform="translate(149,65)"/>
<path d="M0 0 C0.66 0.66 1.32 1.32 2 2 C1.34 2 0.68 2 0 2 C0 1.34 0 0.68 0 0 Z " fill="#46D47F" transform="translate(106,53)"/>
<path d="" fill="#557F7F" transform="translate(0,0)"/>
<path d="" fill="#557F7F" transform="translate(0,0)"/>
<path d="" fill="#557F7F" transform="translate(0,0)"/>
<path d="" fill="#002A2A" transform="translate(0,0)"/>
<path d="" fill="#7FBF7F" transform="translate(0,0)"/>
<path d="" fill="#7FBFBF" transform="translate(0,0)"/>
<path d="" fill="#7F7F7F" transform="translate(0,0)"/>
<path d="" fill="#7FBFBF" transform="translate(0,0)"/>
<path d="M0 0 C2 1 2 1 2 1 Z " fill="#7FBF7F" transform="translate(116,152)"/>
<path d="" fill="#3F946A" transform="translate(0,0)"/>
<path d="" fill="#7FD4D4" transform="translate(0,0)"/>
<path d="" fill="#3FBFBF" transform="translate(0,0)"/>
<path d="" fill="#7FBFBF" transform="translate(0,0)"/>
<path d="" fill="#7FBFBF" transform="translate(0,0)"/>
<path d="M0 0 C2 1 2 1 2 1 Z " fill="#FFFFFF" transform="translate(42,120)"/>
<path d="M0 0 C2 1 2 1 2 1 Z " fill="#3FBF7F" transform="translate(140,119)"/>
<path d="M0 0 C2 1 2 1 2 1 Z " fill="#3FFF3F" transform="translate(72,119)"/>
<path d="M0 0 C2 1 2 1 2 1 Z " fill="#3FBFBF" transform="translate(56,119)"/>
<path d="" fill="#7FBFBF" transform="translate(0,0)"/>
<path d="" fill="#2A9455" transform="translate(0,0)"/>
<path d="M0 0 C2 1 2 1 2 1 Z " fill="#7FBFBF" transform="translate(50,115)"/>
<path d="" fill="#BFFFFF" transform="translate(0,0)"/>
<path d="" fill="#3F7F7F" transform="translate(0,0)"/>
<path d="" fill="#94D494" transform="translate(0,0)"/>
<path d="" fill="#3F7F3F" transform="translate(0,0)"/>
<path d="" fill="#7F7F7F" transform="translate(0,0)"/>
<path d="" fill="#7FBFBF" transform="translate(0,0)"/>
<path d="M0 0 C2 1 2 1 2 1 Z " fill="#FFFFFF" transform="translate(50,105)"/>
<path d="M0 0 C2 1 2 1 2 1 Z " fill="#7F7F7F" transform="translate(84,102)"/>
<path d="" fill="#00BFBF" transform="translate(0,0)"/>
<path d="" fill="#00BFBF" transform="translate(0,0)"/>
<path d="M0 0 C2 1 2 1 2 1 Z " fill="#00BFBF" transform="translate(66,85)"/>
<path d="" fill="#007F7F" transform="translate(0,0)"/>
<path d="M0 0 C2 1 2 1 2 1 Z " fill="#7FFFFF" transform="translate(36,79)"/>
<path d="M0 0 C2 1 2 1 2 1 Z " fill="#3FFFFF" transform="translate(29,74)"/>
<path d="" fill="#7FBFBF" transform="translate(0,0)"/>
<path d="M0 0 C2 1 2 1 2 1 Z " fill="#BFFFBF" transform="translate(147,66)"/>
<path d="M0 0 C2 1 2 1 2 1 Z " fill="#FFFFFF" transform="translate(152,64)"/>
<path d="" fill="#FFFFFF" transform="translate(0,0)"/>
<path d="" fill="#7FBFBF" transform="translate(0,0)"/>
<path d="" fill="#003F3F" transform="translate(0,0)"/>
<path d="" fill="#3F3F3F" transform="translate(0,0)"/>
<path d="" fill="#7FD4AA" transform="translate(0,0)"/>
<path d="" fill="#7FBFBF" transform="translate(0,0)"/>
<path d="" fill="#7FD4AA" transform="translate(0,0)"/>
<path d="" fill="#AAD4D4" transform="translate(0,0)"/>
<path d="" fill="#3FBF3F" transform="translate(0,0)"/>
<path d="" fill="#7FBF7F" transform="translate(0,0)"/>
<path d="M0 0 C2 1 2 1 2 1 Z " fill="#3FBFBF" transform="translate(114,30)"/>
<path d="M0 0 C2 1 2 1 2 1 Z " fill="#7FFF7F" transform="translate(48,19)"/>
<path d="" fill="#FFFFFF" transform="translate(0,0)"/>
<path d="" fill="#007F00" transform="translate(0,0)"/>
<path d="" fill="#7F7F7F" transform="translate(0,0)"/>
<path d="" fill="#00FFFF" transform="translate(0,0)"/>
<path d="" fill="#7F7F7F" transform="translate(0,0)"/>
<path d="" fill="#00FFFF" transform="translate(0,0)"/>
<path d="" fill="#00FFFF" transform="translate(0,0)"/>
<path d="" fill="#007F7F" transform="translate(0,0)"/>
<path d="" fill="#00FFFF" transform="translate(0,0)"/>
<path d="" fill="#FFFFFF" transform="translate(0,0)"/>
<path d="" fill="#00FF7F" transform="translate(0,0)"/>
<path d="" fill="#7FFF7F" transform="translate(0,0)"/>
<path d="" fill="#FFFFFF" transform="translate(0,0)"/>
<path d="" fill="#005500" transform="translate(0,0)"/>
<path d="" fill="#55AAAA" transform="translate(0,0)"/>
<path d="" fill="#005555" transform="translate(0,0)"/>
<path d="" fill="#7F7F7F" transform="translate(0,0)"/>
<path d="" fill="#007F7F" transform="translate(0,0)"/>
<path d="" fill="#00FFFF" transform="translate(0,0)"/>
<path d="" fill="#00FFFF" transform="translate(0,0)"/>
<path d="" fill="#007F7F" transform="translate(0,0)"/>
<path d="" fill="#007F7F" transform="translate(0,0)"/>
<path d="" fill="#00AA55" transform="translate(0,0)"/>
<path d="" fill="#007F00" transform="translate(0,0)"/>
<path d="" fill="#7FFFFF" transform="translate(0,0)"/>
<path d="" fill="#FFFFFF" transform="translate(0,0)"/>
<path d="" fill="#00FFFF" transform="translate(0,0)"/>
<path d="" fill="#00FF00" transform="translate(0,0)"/>
<path d="" fill="#000000" transform="translate(0,0)"/>
<path d="" fill="#FFFFFF" transform="translate(0,0)"/>
<path d="" fill="#7F7F7F" transform="translate(0,0)"/>
<path d="" fill="#FFFFFF" transform="translate(0,0)"/>
<path d="" fill="#7FFFFF" transform="translate(0,0)"/>
<path d="" fill="#7F7F7F" transform="translate(0,0)"/>
<path d="" fill="#007F7F" transform="translate(0,0)"/>
<path d="" fill="#00AA55" transform="translate(0,0)"/>
<path d="" fill="#FFFFFF" transform="translate(0,0)"/>
<path d="" fill="#00FFFF" transform="translate(0,0)"/>
<path d="" fill="#00FFFF" transform="translate(0,0)"/>
<path d="" fill="#00FFFF" transform="translate(0,0)"/>
<path d="" fill="#00FFFF" transform="translate(0,0)"/>
<path d="" fill="#00FFFF" transform="translate(0,0)"/>
<path d="" fill="#7FFFFF" transform="translate(0,0)"/>
<path d="" fill="#00FFFF" transform="translate(0,0)"/>
<path d="" fill="#007F7F" transform="translate(0,0)"/>
<path d="" fill="#00AA55" transform="translate(0,0)"/>
<path d="" fill="#00FFFF" transform="translate(0,0)"/>
<path d="" fill="#00FFFF" transform="translate(0,0)"/>
<path d="" fill="#000000" transform="translate(0,0)"/>
<path d="" fill="#007F00" transform="translate(0,0)"/>
<path d="" fill="#00AAAA" transform="translate(0,0)"/>
<path d="" fill="#00FFFF" transform="translate(0,0)"/>
<path d="" fill="#000000" transform="translate(0,0)"/>
<path d="" fill="#00FFFF" transform="translate(0,0)"/>
<path d="" fill="#007F7F" transform="translate(0,0)"/>
<path d="" fill="#00FFFF" transform="translate(0,0)"/>
<path d="" fill="#FFFFFF" transform="translate(0,0)"/>
<path d="" fill="#55AAAA" transform="translate(0,0)"/>
<path d="" fill="#000000" transform="translate(0,0)"/>
<path d="" fill="#AAAAAA" transform="translate(0,0)"/>
<path d="" fill="#FFFFFF" transform="translate(0,0)"/>
<path d="" fill="#000000" transform="translate(0,0)"/>
<path d="" fill="#00FFFF" transform="translate(0,0)"/>
<path d="" fill="#7FFFFF" transform="translate(0,0)"/>
<path d="" fill="#007F7F" transform="translate(0,0)"/>
<path d="" fill="#00FFFF" transform="translate(0,0)"/>
<path d="" fill="#00FF00" transform="translate(0,0)"/>
<path d="" fill="#00FFFF" transform="translate(0,0)"/>
<path d="" fill="#FFFFFF" transform="translate(0,0)"/>
<path d="" fill="#00FFFF" transform="translate(0,0)"/>
<path d="" fill="#00FF00" transform="translate(0,0)"/>
<path d="" fill="#7F7F7F" transform="translate(0,0)"/>
<path d="" fill="#FFFFFF" transform="translate(0,0)"/>
<path d="" fill="#FFFFFF" transform="translate(0,0)"/>
<path d="" fill="#FFFFFF" transform="translate(0,0)"/>
<path d="" fill="#FFFFFF" transform="translate(0,0)"/>
<path d="" fill="#7F7F7F" transform="translate(0,0)"/>
<path d="" fill="#FFFFFF" transform="translate(0,0)"/>
<path d="" fill="#00FFFF" transform="translate(0,0)"/>
<path d="" fill="#FFFFFF" transform="translate(0,0)"/>
<path d="" fill="#FFFFFF" transform="translate(0,0)"/>
<path d="" fill="#00FFFF" transform="translate(0,0)"/>
<path d="" fill="#FFFFFF" transform="translate(0,0)"/>
<path d="" fill="#00FFFF" transform="translate(0,0)"/>
<path d="" fill="#000000" transform="translate(0,0)"/>
<path d="" fill="#00FFFF" transform="translate(0,0)"/>
<path d="" fill="#FFFFFF" transform="translate(0,0)"/>
<path d="" fill="#00FFFF" transform="translate(0,0)"/>
<path d="" fill="#FFFFFF" transform="translate(0,0)"/>
<path d="" fill="#7FFF7F" transform="translate(0,0)"/>
<path d="" fill="#00FFFF" transform="translate(0,0)"/>
<path d="" fill="#000000" transform="translate(0,0)"/>
<path d="" fill="#007F7F" transform="translate(0,0)"/>
<path d="" fill="#007F7F" transform="translate(0,0)"/>
<path d="" fill="#007F7F" transform="translate(0,0)"/>
<path d="" fill="#00FF7F" transform="translate(0,0)"/>
<path d="" fill="#000000" transform="translate(0,0)"/>
<path d="" fill="#FFFFFF" transform="translate(0,0)"/>
<path d="" fill="#000000" transform="translate(0,0)"/>
<path d="" fill="#00AA55" transform="translate(0,0)"/>
<path d="" fill="#00FFFF" transform="translate(0,0)"/>
<path d="" fill="#FFFFFF" transform="translate(0,0)"/>
<path d="" fill="#000000" transform="translate(0,0)"/>
<path d="" fill="#000000" transform="translate(0,0)"/>
<path d="" fill="#00FFFF" transform="translate(0,0)"/>
<path d="" fill="#00FFFF" transform="translate(0,0)"/>
<path d="" fill="#00FFFF" transform="translate(0,0)"/>
<path d="" fill="#000000" transform="translate(0,0)"/>
<path d="" fill="#00FFFF" transform="translate(0,0)"/>
<path d="" fill="#7FFF7F" transform="translate(0,0)"/>
<path d="" fill="#007F7F" transform="translate(0,0)"/>
<path d="" fill="#00FFFF" transform="translate(0,0)"/>
<path d="" fill="#FFFFFF" transform="translate(0,0)"/>
<path d="" fill="#00FFFF" transform="translate(0,0)"/>
<path d="" fill="#007F7F" transform="translate(0,0)"/>
<path d="" fill="#007F7F" transform="translate(0,0)"/>
<path d="" fill="#007F00" transform="translate(0,0)"/>
<path d="" fill="#007F7F" transform="translate(0,0)"/>
<path d="" fill="#7FFF7F" transform="translate(0,0)"/>
<path d="" fill="#007F00" transform="translate(0,0)"/>
<path d="" fill="#7FFF7F" transform="translate(0,0)"/>
<path d="" fill="#00FFFF" transform="translate(0,0)"/>
<path d="" fill="#00FFFF" transform="translate(0,0)"/>
<path d="" fill="#7FFFFF" transform="translate(0,0)"/>
<path d="" fill="#7F7F7F" transform="translate(0,0)"/>
<path d="" fill="#55AAAA" transform="translate(0,0)"/>
<path d="" fill="#007F7F" transform="translate(0,0)"/>
<path d="" fill="#007F00" transform="translate(0,0)"/>
<path d="" fill="#7FFF7F" transform="translate(0,0)"/>
<path d="" fill="#007F7F" transform="translate(0,0)"/>
<path d="" fill="#7FFF7F" transform="translate(0,0)"/>
<path d="" fill="#00FF00" transform="translate(0,0)"/>
<path d="" fill="#7F7F7F" transform="translate(0,0)"/>
<path d="" fill="#000000" transform="translate(0,0)"/>
<path d="" fill="#FFFFFF" transform="translate(0,0)"/>
<path d="" fill="#00FF7F" transform="translate(0,0)"/>
<path d="" fill="#00FFFF" transform="translate(0,0)"/>
<path d="" fill="#00FFFF" transform="translate(0,0)"/>
<path d="" fill="#00FF7F" transform="translate(0,0)"/>
<path d="" fill="#7FFFFF" transform="translate(0,0)"/>
<path d="" fill="#FFFFFF" transform="translate(0,0)"/>
<path d="" fill="#7FFFFF" transform="translate(0,0)"/>
<path d="" fill="#55AAAA" transform="translate(0,0)"/>
<path d="" fill="#00FFFF" transform="translate(0,0)"/>
<path d="" fill="#FFFFFF" transform="translate(0,0)"/>
<path d="" fill="#7FFFFF" transform="translate(0,0)"/>
</svg>
